<svg width="51" height="51" viewBox="0 0 51 51" fill="none" xmlns="http://www.w3.org/2000/svg">
<rect width="50.9197" height="50.9197" rx="10.1839" fill="url(#paint0_linear_1512_444)"/>
<path d="M25.4603 38.7934C32.8241 38.7934 38.7936 32.8238 38.7936 25.46C38.7936 18.0962 32.8241 12.1267 25.4603 12.1267C18.0965 12.1267 12.127 18.0962 12.127 25.46C12.127 32.8238 18.0965 38.7934 25.4603 38.7934Z" stroke="white" stroke-width="2" stroke-linecap="round" stroke-linejoin="round"/>
<path d="M25.4603 12.1267C22.0366 15.7216 20.127 20.4957 20.127 25.46C20.127 30.4244 22.0366 35.1985 25.4603 38.7934C28.884 35.1985 30.7936 30.4244 30.7936 25.46C30.7936 20.4957 28.884 15.7216 25.4603 12.1267Z" stroke="white" stroke-width="2" stroke-linecap="round" stroke-linejoin="round"/>
<path d="M12.127 25.46H38.7936" stroke="white" stroke-width="2" stroke-linecap="round" stroke-linejoin="round"/>
<defs>
<linearGradient id="paint0_linear_1512_444" x1="-1.01839" y1="1.52759" x2="57.0301" y2="61.6129" gradientUnits="userSpaceOnUse">
<stop stop-color="#EC892E"/>
<stop offset="1" stop-color="#640F0F"/>
</linearGradient>
</defs>
</svg>
