<svg width="40" height="40" viewBox="0 0 40 40" fill="none" xmlns="http://www.w3.org/2000/svg">
<path fill-rule="evenodd" clip-rule="evenodd" d="M22.1541 36.7789L19.8161 28.0537L17.4782 36.7789C16.5378 40.2885 11.8329 40.9273 9.99084 37.7955C8.05501 34.5043 5.31187 31.7612 2.02071 29.8253C-1.1111 27.9832 -0.472319 23.2783 3.03727 22.3379L11.7625 20L3.03727 17.6621C-0.472314 16.7217 -1.1111 12.0168 2.02071 10.1747C5.31188 8.23884 8.05501 5.4957 9.99084 2.20454C11.8329 -0.927262 16.5378 -0.288477 17.4782 3.22111L19.8161 11.9463L22.1541 3.22111C23.0944 -0.288477 27.7994 -0.927262 29.6414 2.20456C31.5773 5.49573 34.3204 8.23886 37.6116 10.1747C40.7434 12.0168 40.1046 16.7217 36.595 17.6621L27.8697 20L36.595 22.3379C40.1046 23.2783 40.7434 27.9832 37.6116 29.8253C34.3204 31.7611 31.5773 34.5043 29.6414 37.7954C27.7994 40.9273 23.0944 40.2885 22.1541 36.7789Z" fill="#2FC8A3"/>
</svg>
