<svg width="50" height="50" viewBox="0 0 50 50" fill="none" xmlns="http://www.w3.org/2000/svg">
<g clip-path="url(#clip0_1738_238)">
<path d="M24.9583 37.1844C22.6422 41.255 20.4679 45.0854 18.2821 48.9099C17.9781 49.4433 17.7436 50.0675 16.9243 49.9913C16.1802 49.9239 16.0441 49.3114 15.8067 48.8044C15.2769 47.6644 14.7355 46.5214 14.2926 45.3462C13.9915 44.5462 13.5746 44.2209 12.7089 44.3557C11.4263 44.555 10.1264 44.6224 8.84096 44.807C8.23297 44.8949 7.70605 44.933 7.30073 44.3615C6.9012 43.7989 7.24572 43.3475 7.50339 42.8962C9.48658 39.397 11.4813 35.9037 13.4703 32.4074C14.2347 31.0622 14.0175 30.2387 12.6597 29.4533C12.2051 29.1895 11.7101 28.999 11.2382 28.7646C9.70951 28.0026 8.84675 26.8274 9.0552 25.0309C9.26076 23.2696 8.9365 21.7193 7.79291 20.2774C6.67827 18.8707 6.76223 17.25 7.87976 15.8491C8.91913 14.545 9.25786 13.1266 9.0581 11.5088C8.80911 9.48961 9.67477 8.11513 11.5248 7.39419C12.9087 6.85495 13.7627 5.90541 14.3591 4.51921C15.3117 2.30363 16.6203 1.63251 18.9943 2.0428C20.1958 2.25088 21.1367 1.8992 22.0892 1.2398C24.4575 -0.401368 25.5026 -0.41016 27.839 1.22808C28.8408 1.92851 29.8251 2.24209 31.0758 2.02522C33.2964 1.63837 34.5935 2.30656 35.5054 4.37854C36.1511 5.84387 37.0428 6.87253 38.5338 7.45573C40.2477 8.12686 41.1163 9.43393 40.8904 11.3447C40.6907 13.0592 41.0265 14.5597 42.1325 15.9576C43.2471 17.3672 43.2008 18.982 42.089 20.3858C41.0555 21.6929 40.6762 23.0967 40.8875 24.7173C41.1568 26.8127 40.213 28.155 38.3398 28.9375C37.8563 29.1397 37.3728 29.38 36.9559 29.6936C36.0642 30.3676 35.6618 31.1091 36.3595 32.2814C38.4122 35.7395 40.3693 39.2534 42.3554 42.7526C42.6304 43.2362 43.085 43.6963 42.6623 44.3381C42.228 44.9975 41.6461 44.892 41.0005 44.7806C40.2911 44.6605 39.5616 44.6751 38.8436 44.6107C37.0292 44.4524 35.7419 45.2212 34.9814 46.9171C34.7064 47.5355 34.4545 48.1655 34.1621 48.7751C33.8986 49.3261 33.7423 49.9943 32.92 50.0001C32.1847 50.006 31.9733 49.4345 31.6896 48.9392C29.6456 45.3638 27.6074 41.7884 25.5663 38.2101C25.4071 37.9287 25.2363 37.6562 24.9526 37.1814L24.9583 37.1844Z" fill="#414042"/>
<path d="M11.1719 23.4072C11.3919 22.2672 10.755 20.8868 9.75033 19.6296C8.9918 18.68 8.82967 17.7159 9.67795 16.7399C10.9431 15.2893 11.36 13.6012 11.0792 11.7227C10.8852 10.4273 11.3282 9.57741 12.5731 9.12316C14.2957 8.49599 15.4712 7.29736 16.0936 5.53017C16.5221 4.31687 17.3733 3.71902 18.6761 4.02381C20.4567 4.43996 21.9998 3.94175 23.3692 2.80172C24.3941 1.9489 25.3987 1.82581 26.4699 2.72846C27.9146 3.95054 29.5446 4.44582 31.4293 4.01795C32.515 3.77177 33.3286 4.21137 33.7194 5.28692C34.4287 7.22702 35.7055 8.5634 37.6424 9.25797C38.6499 9.61844 39.0205 10.3775 38.8728 11.4413C38.5891 13.4664 38.9828 15.2981 40.3435 16.8806C41.0413 17.6895 41.05 18.5716 40.3435 19.3863C38.9712 20.963 38.5891 22.8035 38.8786 24.8256C39.0436 25.9803 38.5456 26.6866 37.5092 27.0676C35.6794 27.7387 34.4577 29.0018 33.7889 30.854C33.3923 31.953 32.6048 32.5098 31.4235 32.2373C29.5967 31.8182 27.9928 32.2666 26.5857 33.4564C25.4885 34.3855 24.4578 34.3767 23.3605 33.4506C21.9535 32.2637 20.3495 31.8211 18.5227 32.2373C17.4341 32.4835 16.6263 32.0409 16.2297 30.9712C15.5117 29.0399 14.2494 27.6889 12.301 27.0031C10.755 26.458 11.0416 25.148 11.1719 23.4043V23.4072Z" fill="white"/>
<path d="M39.9443 42.6119C38.5431 42.4829 37.4342 42.4507 36.3543 42.2573C35.1673 42.0463 34.5941 42.5621 34.2119 43.62C33.8558 44.6018 33.3665 45.5308 32.8193 46.7471C31.4933 44.4553 30.2947 42.3862 29.1048 40.3172C28.6474 39.523 28.1668 38.7376 27.7673 37.9111C27.4285 37.2107 26.4123 36.4018 26.9103 35.8216C27.6457 34.9629 28.685 34.0866 29.9849 34.154C31.5136 34.2361 33.0393 34.5995 34.4203 33.5503C34.7707 33.2836 34.9096 33.7408 35.0283 33.9489C36.6322 36.7476 38.2159 39.5552 39.9472 42.609L39.9443 42.6119Z" fill="#FEFEFE"/>
<path d="M17.1532 46.7705C16.5423 45.4283 16.0096 44.3674 15.5753 43.2684C15.2597 42.4683 14.7907 42.1401 13.9338 42.2456C12.7149 42.395 11.4873 42.4683 10.0166 42.5943C11.7508 39.5464 13.3721 36.7066 14.9818 33.861C15.1874 33.4975 15.3784 33.4067 15.7635 33.6705C16.8231 34.3973 18.0044 34.4735 19.2174 34.1921C20.8011 33.8229 21.8202 34.9218 22.9869 35.6399C23.2909 35.8274 23.2678 36.0736 23.0912 36.3755C21.1543 39.7516 19.229 43.1365 17.1561 46.7705H17.1532Z" fill="#FEFEFE"/>
<path d="M37.1999 18.1878C37.1767 25.0074 31.7107 30.5464 24.9939 30.5552C18.2163 30.564 12.73 24.9664 12.7589 18.0735C12.7879 11.1835 18.2974 5.67387 25.1068 5.72076C31.8091 5.76765 37.2202 11.3476 37.197 18.1907L37.1999 18.1878Z" fill="#58595B"/>
<path d="M14.7822 18.1349C14.7822 12.3762 19.374 7.73985 25.0514 7.76623C30.6448 7.7926 35.1758 12.4348 35.1729 18.1349C35.17 23.8878 30.5522 28.5534 24.9066 28.5094C19.3103 28.4655 14.7851 23.8262 14.7851 18.132L14.7822 18.1349Z" fill="white"/>
<path d="M18.8466 17.3877C19.3301 17.3056 19.6138 17.6544 19.9207 17.965C20.6677 18.727 21.4551 19.4509 22.1558 20.2539C22.6711 20.8458 22.9867 20.7286 23.4789 20.2187C25.601 18.0207 27.7637 15.8637 29.909 13.6862C30.4359 13.1499 31.0092 12.5345 31.7388 13.2291C32.4655 13.9178 31.9472 14.5391 31.4029 15.09C28.9131 17.6075 26.4146 20.1132 23.9508 22.6541C23.1228 23.5098 22.4366 23.4864 21.6404 22.6277C20.5518 21.4554 19.3909 20.3506 18.282 19.1988C17.9317 18.8354 17.7349 18.3987 18.0215 17.88C18.201 17.5518 18.4557 17.3701 18.8582 17.3906L18.8466 17.3877Z" fill="#39B54A"/>
</g>
<defs>
<clipPath id="clip0_1738_238">
<rect width="50" height="50" fill="white"/>
</clipPath>
</defs>
</svg>
