<svg width="51" height="51" viewBox="0 0 51 51" fill="none" xmlns="http://www.w3.org/2000/svg">
<rect width="50.9197" height="50.9197" rx="10.1839" fill="url(#paint0_linear_1512_337)"/>
<path d="M33.9461 20.3679V16.9733C33.9461 16.0729 33.5885 15.2095 32.9519 14.5729C32.3152 13.9363 31.4518 13.5786 30.5515 13.5786H13.5782C12.6779 13.5786 11.8145 13.9363 11.1779 14.5729C10.5412 15.2095 10.1836 16.0729 10.1836 16.9733V27.1572C10.1836 28.0575 10.5412 28.921 11.1779 29.5576C11.8145 30.1942 12.6779 30.5519 13.5782 30.5519H16.9729M20.3675 20.3679H37.3408C39.2156 20.3679 40.7354 21.8877 40.7354 23.7626V33.9465C40.7354 35.8213 39.2156 37.3411 37.3408 37.3411H20.3675C18.4927 37.3411 16.9729 35.8213 16.9729 33.9465V23.7626C16.9729 21.8877 18.4927 20.3679 20.3675 20.3679ZM32.2488 28.8545C32.2488 30.7293 30.729 32.2492 28.8542 32.2492C26.9793 32.2492 25.4595 30.7293 25.4595 28.8545C25.4595 26.9797 26.9793 25.4599 28.8542 25.4599C30.729 25.4599 32.2488 26.9797 32.2488 28.8545Z" stroke="white" stroke-width="2.03679" stroke-linecap="round" stroke-linejoin="round"/>
<defs>
<linearGradient id="paint0_linear_1512_337" x1="-1.01839" y1="1.52759" x2="57.0301" y2="61.6129" gradientUnits="userSpaceOnUse">
<stop stop-color="#EC892E"/>
<stop offset="1" stop-color="#640F0F"/>
</linearGradient>
</defs>
</svg>
