<svg width="45" height="45" viewBox="0 0 45 45" fill="none" xmlns="http://www.w3.org/2000/svg">
<path opacity="0.5" d="M22.4578 39.3162L1 32.5992V6.99597L22.4578 13.713V39.3162Z" fill="url(#paint0_linear_1512_391)"/>
<g filter="url(#filter0_f_1512_391)">
<path d="M22.4608 39.1213L6.07129 29.1191V9.46411L22.4608 19.4663" fill="url(#paint1_linear_1512_391)" fill-opacity="0.1"/>
</g>
<path d="M22.458 39.3162L6.16016 26.287V0.683838L22.458 13.713" fill="url(#paint2_linear_1512_391)"/>
<path opacity="0.5" d="M22.458 39.3162L43.9199 32.5992V6.99597L22.458 13.713V39.3162Z" fill="url(#paint3_linear_1512_391)"/>
<g filter="url(#filter1_f_1512_391)">
<path d="M22.46 39.1213L38.8494 29.514V10.6349L22.46 20.2422" fill="url(#paint4_linear_1512_391)" fill-opacity="0.1"/>
</g>
<path d="M22.458 39.3162L38.7601 26.287V0.683838L22.458 13.713" fill="url(#paint5_linear_1512_391)"/>
<defs>
<filter id="filter0_f_1512_391" x="0.707551" y="4.10037" width="27.1171" height="40.3846" filterUnits="userSpaceOnUse" color-interpolation-filters="sRGB">
<feFlood flood-opacity="0" result="BackgroundImageFix"/>
<feBlend mode="normal" in="SourceGraphic" in2="BackgroundImageFix" result="shape"/>
<feGaussianBlur stdDeviation="2.68187" result="effect1_foregroundBlur_1512_391"/>
</filter>
<filter id="filter1_f_1512_391" x="17.0962" y="5.27115" width="27.1171" height="39.2139" filterUnits="userSpaceOnUse" color-interpolation-filters="sRGB">
<feFlood flood-opacity="0" result="BackgroundImageFix"/>
<feBlend mode="normal" in="SourceGraphic" in2="BackgroundImageFix" result="shape"/>
<feGaussianBlur stdDeviation="2.68187" result="effect1_foregroundBlur_1512_391"/>
</filter>
<linearGradient id="paint0_linear_1512_391" x1="1" y1="23.1562" x2="22.4594" y2="23.1562" gradientUnits="userSpaceOnUse">
<stop stop-color="#96E7FF"/>
<stop offset="0.9997" stop-color="#4781FF"/>
</linearGradient>
<linearGradient id="paint1_linear_1512_391" x1="14.266" y1="39.1213" x2="14.266" y2="9.46411" gradientUnits="userSpaceOnUse">
<stop/>
<stop offset="1" stop-color="#666666"/>
</linearGradient>
<linearGradient id="paint2_linear_1512_391" x1="6.15811" y1="20.0001" x2="22.4596" y2="20.0001" gradientUnits="userSpaceOnUse">
<stop stop-color="#9DEAFF"/>
<stop offset="0.9985" stop-color="#3C96FF"/>
</linearGradient>
<linearGradient id="paint3_linear_1512_391" x1="22.4596" y1="23.1562" x2="43.9189" y2="23.1562" gradientUnits="userSpaceOnUse">
<stop offset="0.00029408" stop-color="#4781FF"/>
<stop offset="0.9982" stop-color="#96E7FF"/>
</linearGradient>
<linearGradient id="paint4_linear_1512_391" x1="30.6547" y1="39.1213" x2="30.6547" y2="10.6349" gradientUnits="userSpaceOnUse">
<stop/>
<stop offset="1" stop-color="#666666"/>
</linearGradient>
<linearGradient id="paint5_linear_1512_391" x1="22.4596" y1="20.0001" x2="38.7611" y2="20.0001" gradientUnits="userSpaceOnUse">
<stop offset="0.00147132" stop-color="#388CED"/>
<stop offset="1" stop-color="#9DEAFF"/>
</linearGradient>
</defs>
</svg>
