<svg width="50" height="50" viewBox="0 0 50 50" fill="none" xmlns="http://www.w3.org/2000/svg">
<rect width="50" height="50" rx="10" fill="url(#paint0_linear_176_764)"/>
<path d="M34.3532 34.0724L33.8447 33.2113L34.3532 34.0724ZM35.0662 32.8232L34.0662 32.8232V32.8232H35.0662ZM23.4994 38.6415L22.963 39.4854L23.4994 38.6415ZM26.5311 38.6913L27.0396 39.5524L26.5311 38.6913ZM10.354 19.3957L9.84209 18.5367L10.354 19.3957ZM10.354 20.6419L9.84209 21.5009H9.84209L10.354 20.6419ZM25.7426 28.9274L26.2546 29.7864L25.7426 28.9274ZM24.2574 28.9274L24.7693 28.0684L24.2574 28.9274ZM39.646 19.3957L40.1579 18.5367L39.646 19.3957ZM39.646 20.6419L39.1341 19.7828L39.646 20.6419ZM16.3214 34.0788L16.8578 33.2348L16.3214 34.0788ZM25.7426 11.1101L25.2307 11.9692L25.7426 11.1101ZM24.2574 11.1101L24.7693 11.9692L24.2574 11.1101ZM40.797 19.9946C40.797 19.4423 40.3493 18.9946 39.797 18.9946C39.2447 18.9946 38.797 19.4423 38.797 19.9946H40.797ZM38.797 27.8283C38.797 28.3806 39.2447 28.8283 39.797 28.8283C40.3493 28.8283 40.797 28.3806 40.797 27.8283H38.797ZM25.2307 11.9692L39.1341 20.2547L40.1579 18.5367L26.2546 10.2511L25.2307 11.9692ZM39.1341 19.7828L25.2307 28.0684L26.2546 29.7864L40.1579 21.5009L39.1341 19.7828ZM10.8659 20.2547L24.7693 11.9692L23.7454 10.2511L9.84209 18.5367L10.8659 20.2547ZM24.7693 28.0684L16.1609 22.9383L15.137 24.6563L23.7454 29.7864L24.7693 28.0684ZM16.1609 22.9383L10.8659 19.7828L9.84209 21.5009L15.137 24.6563L16.1609 22.9383ZM14.6489 23.7973V32.8545H16.6489V23.7973H14.6489ZM15.7849 34.9227L22.963 39.4854L24.0359 37.7976L16.8578 33.2348L15.7849 34.9227ZM27.0396 39.5524L34.8616 34.9334L33.8447 33.2113L26.0226 37.8302L27.0396 39.5524ZM36.0662 32.8232L36.0662 23.7973L34.0662 23.7973L34.0662 32.8232L36.0662 32.8232ZM34.8616 34.9334C35.6082 34.4926 36.0662 33.6902 36.0662 32.8232H34.0662C34.0662 32.9826 33.982 33.1302 33.8447 33.2113L34.8616 34.9334ZM22.963 39.4854C24.2011 40.2725 25.7762 40.2984 27.0396 39.5524L26.0226 37.8302C25.4069 38.1938 24.6393 38.1812 24.0359 37.7976L22.963 39.4854ZM9.84209 18.5367C8.7193 19.2058 8.71931 20.8318 9.84209 21.5009L10.8659 19.7828C11.0447 19.8894 11.0447 20.1482 10.8659 20.2547L9.84209 18.5367ZM25.2307 28.0684C25.0886 28.1531 24.9114 28.1531 24.7693 28.0684L23.7454 29.7864C24.5184 30.2471 25.4816 30.2471 26.2546 29.7864L25.2307 28.0684ZM39.1341 20.2547C38.9553 20.1482 38.9553 19.8894 39.1341 19.7828L40.1579 21.5009C41.2807 20.8318 41.2807 19.2058 40.1579 18.5367L39.1341 20.2547ZM14.6489 32.8545C14.6489 33.6928 15.0774 34.473 15.7849 34.9227L16.8578 33.2348C16.7277 33.1521 16.6489 33.0087 16.6489 32.8545H14.6489ZM26.2546 10.2511C25.4816 9.79048 24.5184 9.79048 23.7454 10.2511L24.7693 11.9692C24.9114 11.8845 25.0886 11.8845 25.2307 11.9692L26.2546 10.2511ZM38.797 19.9946V27.8283H40.797V19.9946H38.797Z" fill="white"/>
<defs>
<linearGradient id="paint0_linear_176_764" x1="-6.78003e-07" y1="5" x2="46" y2="47.5" gradientUnits="userSpaceOnUse">
<stop stop-color="#8EEBFF"/>
<stop offset="1" stop-color="#FF00E5"/>
</linearGradient>
</defs>
</svg>
